<?xml version="1.0" encoding="UTF-8"?>
<svg width="98px" height="98px" viewBox="0 0 98 98" version="1.1" xmlns="http://www.w3.org/2000/svg" xmlns:xlink="http://www.w3.org/1999/xlink">
    <!-- Generator: Sketch 51.2 (57519) - http://www.bohemiancoding.com/sketch -->
    <title>scale</title>
    <desc>Created with Sketch.</desc>
    <defs></defs>
    <g id="Symbols" stroke="none" stroke-width="1" fill="none" fill-rule="evenodd">
        <g id="Features" transform="translate(-591.000000, -269.000000)" fill="#02A2E0" fill-rule="nonzero">
            <g id="scale" transform="translate(591.000000, 268.000000)">
                <g id="Group">
                    <path d="M58.2477049,4.86885246 C58.7670492,4.90131148 59.2863934,4.93377049 59.8057377,4.99868852 C59.8544262,4.99868852 59.9193443,4.99868852 59.9680328,4.99868852 C60.7957377,4.99868852 61.4936066,4.3657377 61.5747541,3.53803279 C61.6559016,2.64540984 61.0067213,1.85016393 60.1140984,1.76901639 C59.5622951,1.70409836 58.9942623,1.65540984 58.4262295,1.62295082 C57.484918,1.5742623 56.7545902,2.25590164 56.7059016,3.14852459 C56.6734426,4.04114754 57.355082,4.82016393 58.2477049,4.86885246 Z" id="Shape"></path>
                    <path d="M50.2465574,5.20967213 C50.3277049,5.20967213 50.4088525,5.20967213 50.49,5.19344262 C50.9931148,5.11229508 51.512459,5.06360656 52.0318033,4.99868852 C52.9244262,4.90131148 53.5736066,4.10606557 53.4762295,3.21344262 C53.3788525,2.32081967 52.5998361,1.68786885 51.6909836,1.76901639 C51.1229508,1.83393443 50.5711475,1.89885246 50.0193443,1.98 C49.1267213,2.10983607 48.5262295,2.93754098 48.6560656,3.81393443 C48.7534426,4.62540984 49.4513115,5.20967213 50.2465574,5.20967213 Z" id="Shape"></path>
                    <path d="M90.3334426,26.3080328 C90.6093443,26.8922951 91.1936066,27.2168852 91.7940984,27.2168852 C92.037541,27.2168852 92.2647541,27.1681967 92.4919672,27.0545902 C93.3034426,26.665082 93.6442623,25.6913115 93.2385246,24.8798361 C92.995082,24.3767213 92.7354098,23.8736066 92.4757377,23.3704918 C92.0537705,22.5752459 91.0637705,22.2831148 90.2847541,22.705082 C89.4895082,23.1270492 89.197377,24.1170492 89.6193443,24.8960656 C89.8627869,25.3829508 90.1062295,25.837377 90.3334426,26.3080328 Z" id="Shape"></path>
                    <path d="M42.3914754,7.18967213 C42.57,7.18967213 42.7647541,7.15721311 42.9432787,7.09229508 C43.4301639,6.91377049 43.9170492,6.75147541 44.4201639,6.58918033 C45.2803279,6.31327869 45.7509836,5.40442623 45.475082,4.5442623 C45.1991803,3.68409836 44.2903279,3.21344262 43.4301639,3.48934426 C42.8945902,3.66786885 42.3590164,3.84639344 41.8234426,4.04114754 C40.9795082,4.3495082 40.557541,5.27459016 40.8659016,6.11852459 C41.1093443,6.78393443 41.7260656,7.18967213 42.3914754,7.18967213 Z" id="Shape"></path>
                    <path d="M92.5731148,32.1181967 C92.7191803,32.605082 92.8490164,33.1081967 92.9788525,33.6113115 C93.157377,34.3578689 93.8227869,34.8447541 94.5531148,34.8447541 C94.6829508,34.8447541 94.8127869,34.8285246 94.942623,34.7960656 C95.8190164,34.585082 96.3383607,33.692459 96.127377,32.8322951 C95.997541,32.2804918 95.8352459,31.744918 95.6729508,31.1931148 C95.4132787,30.3329508 94.5206557,29.8460656 93.6604918,30.1057377 C92.8165574,30.3491803 92.3134426,31.2580328 92.5731148,32.1181967 Z" id="Shape"></path>
                    <path d="M23.3867213,21.7962295 C23.9060656,21.7962295 24.4091803,21.5527869 24.717541,21.0983607 C25.0096721,20.6763934 25.3180328,20.2544262 25.642623,19.8486885 C26.1781967,19.1345902 26.0483607,18.1121311 25.3342623,17.5765574 C24.6201639,17.0409836 23.5977049,17.1708197 23.0621311,17.884918 C22.7213115,18.3393443 22.3804918,18.7937705 22.0721311,19.2481967 C21.5527869,19.9785246 21.7313115,21.0009836 22.4778689,21.5040984 C22.737541,21.6988525 23.0621311,21.7962295 23.3867213,21.7962295 Z" id="Shape"></path>
                    <path d="M91.1611475,61.5747541 C90.3821311,61.1203279 89.3921311,61.38 88.9377049,62.1590164 C88.6780328,62.6134426 88.4021311,63.0516393 88.1262295,63.4898361 C87.6393443,64.2363934 87.8665574,65.242623 88.6131148,65.7295082 C88.8890164,65.9080328 89.1811475,65.9891803 89.4895082,65.9891803 C90.025082,65.9891803 90.5444262,65.7295082 90.8527869,65.242623 C91.1611475,64.7719672 91.4532787,64.285082 91.7291803,63.7981967 C92.1998361,63.0191803 91.9401639,62.0291803 91.1611475,61.5747541 Z" id="Shape"></path>
                    <path d="M16.7001639,36.565082 C16.8137705,36.5813115 16.9111475,36.597541 17.0247541,36.597541 C17.787541,36.597541 18.4529508,36.0619672 18.6152459,35.2991803 C18.712623,34.7960656 18.8262295,34.2767213 18.9560656,33.7736066 C19.1670492,32.8972131 18.6314754,32.0208197 17.7713115,31.8098361 C16.9111475,31.5988525 16.0185246,32.1344262 15.807541,32.9945902 C15.6777049,33.5301639 15.5478689,34.0819672 15.4342623,34.65 C15.2557377,35.5263934 15.8237705,36.3865574 16.7001639,36.565082 Z" id="Shape"></path>
                    <path d="M95.6729508,46.1080328 C94.7803279,45.9944262 93.9688525,46.6436066 93.8714754,47.52 C93.8065574,48.0393443 93.7416393,48.5586885 93.6604918,49.0618033 C93.5144262,49.9381967 94.114918,50.7821311 95.007541,50.9281967 C95.0886885,50.9444262 95.1860656,50.9444262 95.2672131,50.9444262 C96.0462295,50.9444262 96.7440984,50.3763934 96.8739344,49.5811475 C96.955082,49.0293443 97.0362295,48.477541 97.1011475,47.9095082 C97.1822951,47.0168852 96.5493443,46.2054098 95.6729508,46.1080328 Z" id="Shape"></path>
                    <path d="M35.1044262,10.7277049 C35.3965574,10.7277049 35.6886885,10.6465574 35.9645902,10.4842623 C36.4027869,10.2083607 36.8572131,9.94868852 37.3116393,9.68901639 C38.0906557,9.25081967 38.3665574,8.26081967 37.9283607,7.48180328 C37.4739344,6.70278689 36.4839344,6.41065574 35.704918,6.86508197 C35.2180328,7.14098361 34.7311475,7.43311475 34.2442623,7.7252459 C33.4814754,8.19590164 33.2542623,9.20213115 33.724918,9.96491803 C34.0332787,10.4518033 34.552623,10.7277049 35.1044262,10.7277049 Z" id="Shape"></path>
                    <path d="M28.677541,15.6614754 C29.0832787,15.6614754 29.4727869,15.5154098 29.797377,15.2232787 C30.1706557,14.8662295 30.5601639,14.5254098 30.9496721,14.1845902 C31.6313115,13.6003279 31.6962295,12.5778689 31.1119672,11.8962295 C30.5277049,11.2145902 29.4890164,11.1496721 28.8236066,11.7339344 C28.4016393,12.1072131 27.9796721,12.4804918 27.5739344,12.87 C26.9247541,13.4867213 26.8922951,14.5091803 27.5090164,15.1583607 C27.817377,15.4991803 28.2555738,15.6614754 28.677541,15.6614754 Z" id="Shape"></path>
                    <path d="M18.81,28.7262295 C19.0209836,28.8236066 19.2319672,28.8560656 19.4591803,28.8560656 C20.0921311,28.8560656 20.6763934,28.4827869 20.9522951,27.8822951 C21.1632787,27.4116393 21.3742623,26.9409836 21.6014754,26.4703279 C21.9909836,25.6588525 21.6501639,24.7013115 20.8386885,24.3118033 C20.0272131,23.9222951 19.0534426,24.2631148 18.6801639,25.0745902 C18.4367213,25.5777049 18.2095082,26.0970492 17.9822951,26.6001639 C17.6090164,27.4116393 17.9822951,28.3691803 18.81,28.7262295 Z" id="Shape"></path>
                    <path d="M76.1163934,6.76770492 C75.6295082,6.49180328 75.1263934,6.23213115 74.6232787,5.97245902 C73.8280328,5.56672131 72.8542623,5.89131148 72.4485246,6.68655738 C72.0427869,7.48180328 72.367377,8.45557377 73.162623,8.86131148 C73.6170492,9.08852459 74.0714754,9.33196721 74.5259016,9.59163934 C74.7855738,9.73770492 75.0452459,9.80262295 75.3211475,9.80262295 C75.8891803,9.80262295 76.4409836,9.5104918 76.7331148,8.97491803 C77.187541,8.19590164 76.8954098,7.20590164 76.1163934,6.76770492 Z" id="Shape"></path>
                    <path d="M78.5995082,73.6495082 C78.177541,73.9578689 77.7555738,74.25 77.3336066,74.5421311 C76.5870492,75.0452459 76.3922951,76.0514754 76.8954098,76.7980328 C77.2037705,77.2686885 77.7231148,77.5121311 78.242459,77.5121311 C78.5508197,77.5121311 78.8754098,77.4147541 79.1513115,77.2362295 C79.6219672,76.9278689 80.0763934,76.5870492 80.5308197,76.262459 C81.244918,75.7268852 81.4072131,74.7206557 80.8716393,73.9903279 C80.3360656,73.26 79.3298361,73.1301639 78.5995082,73.6495082 Z" id="Shape"></path>
                    <path d="M83.0301639,11.6040984 C82.6081967,11.2308197 82.17,10.8737705 81.7318033,10.5329508 C81.0339344,9.98114754 80.0114754,10.0947541 79.4596721,10.792623 C78.9078689,11.4904918 79.0214754,12.5129508 79.7193443,13.0647541 C80.125082,13.3893443 80.5308197,13.7139344 80.9203279,14.0547541 C81.2286885,14.3144262 81.6019672,14.4442623 81.9752459,14.4442623 C82.4296721,14.4442623 82.8840984,14.2495082 83.2086885,13.8762295 C83.7767213,13.2108197 83.6955738,12.1883607 83.0301639,11.6040984 Z" id="Shape"></path>
                    <path d="M88.8078689,17.722623 C88.4670492,17.2681967 88.11,16.83 87.7529508,16.4080328 C87.184918,15.7263934 86.162459,15.6290164 85.4645902,16.1970492 C84.7829508,16.765082 84.6855738,17.8037705 85.2536066,18.4854098 C85.5944262,18.8911475 85.9190164,19.2806557 86.227377,19.702623 C86.5519672,20.1245902 87.022623,20.3355738 87.5095082,20.3355738 C87.8503279,20.3355738 88.207377,20.2219672 88.4995082,19.9947541 C89.2298361,19.4591803 89.3596721,18.4367213 88.8078689,17.722623 Z" id="Shape"></path>
                    <path d="M94.2122951,54.0767213 C93.3521311,53.8008197 92.4432787,54.2552459 92.1511475,55.0991803 C91.9888525,55.5860656 91.8103279,56.0729508 91.6318033,56.5598361 C91.3072131,57.4037705 91.7291803,58.3288525 92.5731148,58.6534426 C92.7678689,58.7183607 92.962623,58.7670492 93.157377,58.7670492 C93.8065574,58.7670492 94.4232787,58.377541 94.6667213,57.7283607 C94.8614754,57.2090164 95.0562295,56.6734426 95.2347541,56.1378689 C95.5106557,55.2777049 95.0562295,54.352623 94.2122951,54.0767213 Z" id="Shape"></path>
                    <path d="M84.3609836,68.4398361 C84.0201639,68.8293443 83.6631148,69.202623 83.2898361,69.5759016 C82.6568852,70.225082 82.6731148,71.247541 83.3222951,71.8642623 C83.6306557,72.172623 84.052623,72.3186885 84.4583607,72.3186885 C84.8803279,72.3186885 85.3022951,72.1563934 85.6268852,71.8318033 C86.0163934,71.4260656 86.4059016,71.0203279 86.7791803,70.5983607 C87.3796721,69.9329508 87.3147541,68.9104918 86.6493443,68.31 C85.9839344,67.7095082 84.9614754,67.7744262 84.3609836,68.4398361 Z" id="Shape"></path>
                    <path d="M64.5609836,80.1088525 C64.0578689,80.222459 63.5385246,80.3360656 63.0354098,80.4334426 C62.1590164,80.5957377 61.5747541,81.4396721 61.7370492,82.3322951 C61.8831148,83.1113115 62.5647541,83.6631148 63.327541,83.6631148 C63.424918,83.6631148 63.5222951,83.6468852 63.6359016,83.6306557 C64.1877049,83.5332787 64.7395082,83.4196721 65.275082,83.2898361 C66.1514754,83.095082 66.7032787,82.2186885 66.4922951,81.3422951 C66.297541,80.4659016 65.437377,79.9140984 64.5609836,80.1088525 Z" id="Shape"></path>
                    <path d="M94.0013115,39.7460656 C94.05,40.2654098 94.082459,40.7685246 94.0986885,41.2878689 C94.1311475,42.1642623 94.8452459,42.8459016 95.7216393,42.8459016 C95.7378689,42.8459016 95.7703279,42.8459016 95.7865574,42.8459016 C96.6791803,42.8134426 97.3770492,42.0506557 97.3445902,41.1580328 C97.3283607,40.59 97.2796721,40.0219672 97.2309836,39.4701639 C97.1498361,38.577541 96.3545902,37.8959016 95.4781967,37.9932787 C94.5855738,38.0744262 93.9201639,38.8534426 94.0013115,39.7460656 Z" id="Shape"></path>
                    <path d="M68.374918,3.44065574 C67.8393443,3.27836066 67.3037705,3.11606557 66.7519672,2.97 C65.8918033,2.74278689 64.9991803,3.24590164 64.7719672,4.10606557 C64.5447541,4.96622951 65.0478689,5.85885246 65.9242623,6.10229508 C66.427377,6.23213115 66.9304918,6.37819672 67.417377,6.5404918 C67.5796721,6.58918033 67.7419672,6.62163934 67.9042623,6.62163934 C68.6021311,6.62163934 69.235082,6.18344262 69.4460656,5.48557377 C69.7057377,4.62540984 69.235082,3.70032787 68.374918,3.44065574 Z" id="Shape"></path>
                    <path d="M71.9129508,77.6095082 C71.4422951,77.8204918 70.9716393,78.0314754 70.4847541,78.2262295 C69.6570492,78.5670492 69.267541,79.5083607 69.6083607,80.3360656 C69.8680328,80.9690164 70.4685246,81.3422951 71.1014754,81.3422951 C71.312459,81.3422951 71.5072131,81.3098361 71.7181967,81.212459 C72.237541,81.0014754 72.7568852,80.7742623 73.2762295,80.5308197 C74.0877049,80.157541 74.4447541,79.1837705 74.0714754,78.3722951 C73.6981967,77.5932787 72.7406557,77.2362295 71.9129508,77.6095082 Z" id="Shape"></path>
                    <circle id="Oval" cx="9.73770492" cy="69.7219672" r="1.62295082"></circle>
                    <circle id="Oval" cx="19.4754098" cy="69.7219672" r="1.62295082"></circle>
                    <circle id="Oval" cx="9.73770492" cy="79.4596721" r="1.62295082"></circle>
                    <circle id="Oval" cx="19.4754098" cy="79.4596721" r="1.62295082"></circle>
                    <circle id="Oval" cx="14.6065574" cy="74.5908197" r="1.62295082"></circle>
                    <circle id="Oval" cx="29.2131148" cy="69.7219672" r="1.62295082"></circle>
                    <circle id="Oval" cx="24.3442623" cy="74.5908197" r="1.62295082"></circle>
                    <circle id="Oval" cx="29.2131148" cy="79.4596721" r="1.62295082"></circle>
                    <circle id="Oval" cx="9.73770492" cy="89.197377" r="1.62295082"></circle>
                    <circle id="Oval" cx="19.4754098" cy="89.197377" r="1.62295082"></circle>
                    <circle id="Oval" cx="14.6065574" cy="84.3285246" r="1.62295082"></circle>
                    <circle id="Oval" cx="24.3442623" cy="84.3285246" r="1.62295082"></circle>
                    <circle id="Oval" cx="29.2131148" cy="89.197377" r="1.62295082"></circle>
                    <path d="M64.9180328,63.2301639 C64.9180328,47.1304918 51.8045902,34.0170492 35.704918,34.0170492 C28.8236066,34.0170492 22.5103279,36.4190164 17.5116393,40.4114754 C17.2195082,40.0544262 16.8137705,39.8109836 16.3106557,39.7785246 C15.4342623,39.7298361 14.6552459,40.4439344 14.6227869,41.3365574 C14.6227869,41.8721311 14.6065574,42.4077049 14.6065574,43.0244262 C14.6065574,43.0406557 14.6227869,43.0568852 14.6227869,43.0731148 C9.59163934,48.3152459 6.49180328,55.407541 6.49180328,63.2301639 C6.49180328,63.7495082 6.5242623,64.3013115 6.57295082,64.9180328 C2.54803279,68.4885246 0,73.6657377 0,79.4596721 C0,90.2036066 8.73147541,98.935082 19.4754098,98.935082 C25.2531148,98.935082 30.4465574,96.3870492 34.0170492,92.3621311 C34.617541,92.4108197 35.1855738,92.4432787 35.704918,92.4432787 C43.5113115,92.4432787 50.6036066,89.3434426 55.8619672,84.3285246 C55.9106557,84.3285246 55.9431148,84.3285246 55.9918033,84.3285246 C56.3001639,84.3285246 56.6085246,84.3285246 56.9168852,84.3122951 C57.8095082,84.2960656 58.5236066,83.5495082 58.507377,82.6568852 C58.507377,82.3485246 58.377541,82.072623 58.2152459,81.8129508 C62.402459,76.7655738 64.9180328,70.29 64.9180328,63.2301639 Z M19.4754098,95.6891803 C10.5329508,95.6891803 3.24590164,88.4021311 3.24590164,79.4596721 C3.24590164,73.324918 6.67032787,67.9691803 11.7177049,65.2101639 C11.7663934,65.1777049 11.815082,65.1614754 11.88,65.1290164 C12.2695082,64.9180328 12.6752459,64.7232787 13.0972131,64.5447541 C13.1783607,64.5122951 13.2595082,64.4798361 13.3406557,64.447377 C13.7301639,64.285082 14.1196721,64.1390164 14.5254098,64.0091803 C14.6227869,63.9767213 14.7363934,63.9442623 14.8337705,63.9118033 C15.2232787,63.7981967 15.6127869,63.7008197 16.0022951,63.6034426 C16.1321311,63.5709836 16.2457377,63.5547541 16.3755738,63.5222951 C16.765082,63.4411475 17.1545902,63.392459 17.5440984,63.3437705 C17.6739344,63.327541 17.8037705,63.3113115 17.9336066,63.295082 C18.4529508,63.2463934 18.9722951,63.2139344 19.4916393,63.2139344 C28.4340984,63.2139344 35.7211475,70.5009836 35.7211475,79.4434426 C35.7211475,79.9627869 35.6886885,80.4821311 35.64,81.0014754 C35.6237705,81.1313115 35.607541,81.2611475 35.5913115,81.3909836 C35.542623,81.7804918 35.4939344,82.17 35.4127869,82.5595082 C35.3965574,82.6893443 35.3640984,82.8029508 35.3316393,82.9327869 C35.2504918,83.3222951 35.1531148,83.7118033 35.0232787,84.1013115 C34.9908197,84.1986885 34.9583607,84.3122951 34.9259016,84.4096721 C34.7960656,84.8154098 34.65,85.204918 34.4877049,85.5944262 C34.4552459,85.6755738 34.4227869,85.7567213 34.3903279,85.8378689 C34.2118033,86.2598361 34.0170492,86.6655738 33.8060656,87.055082 C33.7736066,87.1037705 33.757377,87.152459 33.724918,87.217377 C30.9659016,92.2647541 25.6101639,95.6891803 19.4754098,95.6891803 Z M36.4190164,89.035082 C37.1818033,87.6880328 37.7822951,86.227377 38.2204918,84.7018033 C38.2691803,84.5395082 38.3016393,84.3772131 38.3503279,84.214918 C38.4963934,83.6144262 38.6262295,82.9977049 38.7236066,82.3647541 C38.7560656,82.17 38.7885246,81.9914754 38.8047541,81.8129508 C38.9021311,81.0339344 38.9670492,80.254918 38.9670492,79.4596721 C38.9670492,68.7157377 30.2355738,59.9842623 19.4916393,59.9842623 C18.6963934,59.9842623 17.917377,60.0491803 17.1383607,60.1465574 C16.9436066,60.1627869 16.765082,60.2114754 16.5865574,60.2277049 C15.9536066,60.325082 15.3368852,60.4386885 14.7363934,60.6009836 C14.5740984,60.6496721 14.4118033,60.6821311 14.2495082,60.7308197 C12.7239344,61.1527869 11.2632787,61.7695082 9.91622951,62.5322951 C9.86754098,62.5647541 9.80262295,62.5809836 9.75393443,62.6134426 C10.0947541,48.5911475 21.6014754,37.2791803 35.7211475,37.2791803 C50.0355738,37.2791803 61.6883607,48.9319672 61.6883607,63.2463934 C61.6883607,77.3498361 50.3763934,88.8727869 36.3540984,89.2136066 C36.3703279,89.132459 36.3865574,89.0837705 36.4190164,89.035082 Z" id="Shape"></path>
                </g>
            </g>
        </g>
    </g>
</svg>