<?xml version="1.0" encoding="UTF-8"?>
<svg width="99px" height="99px" viewBox="0 0 99 99" version="1.1" xmlns="http://www.w3.org/2000/svg" xmlns:xlink="http://www.w3.org/1999/xlink">
    <!-- Generator: Sketch 51.2 (57519) - http://www.bohemiancoding.com/sketch -->
    <title>returnoninvestment</title>
    <desc>Created with Sketch.</desc>
    <defs></defs>
    <g id="Symbols" stroke="none" stroke-width="1" fill="none" fill-rule="evenodd">
        <g id="Features" transform="translate(-950.000000, -271.000000)" fill="#02A2E0" fill-rule="nonzero">
            <g id="returnoninvestment" transform="translate(950.000000, 271.000000)">
                <path d="M49.5,0.7755 C37.1085,0.7755 25.4285625,5.379 16.3948125,13.7630625 L16.3958438,2.503875 L14.8489688,2.503875 L14.8479375,16.3618125 L28.705875,16.3607813 L28.705875,14.8139063 L17.5333125,14.8149375 C26.268,6.7485 37.541625,2.322375 49.5,2.322375 C75.5143125,2.322375 96.677625,23.4856875 96.677625,49.5 C96.677625,62.1070312 91.7668125,73.9560938 82.8495937,82.867125 C81.4986562,84.2170312 80.0518125,85.4978438 78.5513437,86.6714062 L78.2790937,86.8828125 L79.2237187,88.1079375 L79.5031875,87.891375 C81.0552187,86.6765625 82.5484687,85.3545 83.94375,83.96025 C93.1528125,74.7584063 98.2245,62.5195312 98.2245,49.5 C98.2245,22.6328437 76.3671562,0.7755 49.5,0.7755 Z" id="Shape"></path>
                <path d="M7.326,73.9189687 C9.640125,77.9068125 12.5090625,81.5481562 15.852375,84.739875 L16.9197187,83.622 C13.682625,80.5303125 10.9054687,77.0044687 8.66353125,73.1414062 L7.326,73.9189687 Z" id="Shape"></path>
                <path d="M2.363625,47.4962813 L0.8188125,47.4313125 C0.7899375,48.118125 0.7755,48.807 0.7755,49.5 C0.7755,53.4362812 1.24678125,57.3529687 2.17490625,61.14075 L3.6774375,60.7725937 C2.7781875,57.1054687 2.322375,53.3125312 2.322375,49.5 C2.322375,48.8296875 2.3368125,48.1604062 2.363625,47.4962813 Z" id="Shape"></path>
                <path d="M27.0548437,92.7557812 C31.1540625,94.887375 35.5296563,96.4198125 40.0589062,97.3097813 L40.3569375,95.79075 C35.9720625,94.9296563 31.7367187,93.4467188 27.7674375,91.3842188 L27.0548437,92.7557812 Z" id="Shape"></path>
                <path d="M53.6796562,96.4950937 L53.81475,98.0357812 C58.4265,97.6305 62.9413125,96.5745 67.233375,94.895625 L66.6692812,93.456 C62.514375,95.0802187 58.1439375,96.1032187 53.6796562,96.4950937 Z" id="Shape"></path>
                <path d="M3.353625,33.8229375 L4.818,34.32 C5.46665625,32.4090937 6.249375,30.5188125 7.14346875,28.70175 L5.75540625,28.0190625 C4.8324375,29.8959375 4.02290625,31.849125 3.353625,33.8229375 Z" id="Shape"></path>
                <path d="M54.0705,51.4480313 C54.06225,51.4449375 54.054,51.4408125 54.0467812,51.4377188 C54.0375,51.434625 54.0271875,51.4315313 54.0189375,51.4284375 L53.810625,51.3531563 L77.1890625,35.8679063 L63.5765625,15.316125 L20.10525,44.108625 L25.6379062,52.4627813 L20.8621875,65.6132812 L45.6245625,74.6057812 C45.626625,74.6068125 45.6286875,74.6078438 45.63075,74.608875 C45.6328125,74.6099063 45.6359063,74.6099063 45.639,74.6109375 L70.401375,83.6044687 L78.8143125,60.4333125 L54.0705,51.4480313 Z M59.6031562,58.4615625 C60.8220937,61.0695937 60.9520313,63.9962812 59.9682187,66.7022812 C58.4265,70.9510312 54.3561562,73.8055313 49.8392812,73.8055313 C48.5894062,73.8055313 47.3539687,73.585875 46.167,73.1558438 L46.1525625,73.1506875 C41.1128437,71.3191875 38.2810312,66.0928125 39.2669062,60.984 L42.28125,58.9885313 L42.0450938,59.6371875 L43.9240313,60.319875 C43.852875,60.4776562 43.7806875,60.6364688 43.720875,60.8014687 C43.6610625,60.9664687 43.613625,61.1335313 43.5672188,61.2995625 L41.6893125,60.6179062 L41.1613125,62.0719687 L43.3021875,62.8495312 C43.2392813,63.99525 43.461,65.1471562 43.960125,66.2155312 C44.760375,67.9284375 46.1804063,69.2278125 47.9593125,69.873375 C48.7358438,70.1549062 49.5484687,70.294125 50.358,70.294125 C51.7666875,70.294125 53.1691875,69.8744062 54.363375,69.06075 L53.4909375,67.782 C52.0214063,68.7854062 50.1507188,69.0246562 48.4862813,68.4193125 C47.0961563,67.9150312 45.9865313,66.89925 45.3615938,65.5617187 C45.040875,64.8759375 44.87175,64.1468437 44.847,63.4125937 L49.6825312,65.1688125 L50.2105313,63.71475 L45.0439688,61.8389062 C45.0883125,61.66875 45.1140938,61.4975625 45.1749375,61.3305 C45.2357813,61.1655 45.3038438,61.0056562 45.3780938,60.8489062 L50.568375,62.7340313 L51.096375,61.2799687 L46.261875,59.5247813 C47.72625,57.8995312 50.0836875,57.2292188 52.2616875,58.0191562 C53.9106563,58.6183125 55.1491875,59.9290312 55.6606875,61.615125 L57.1415625,61.1655 C56.4867188,59.008125 54.9016875,57.3313125 52.7896875,56.5640625 C49.8000938,55.4750625 46.5392813,56.5424062 44.7170625,58.96275 L43.168125,58.3996875 L52.0894687,52.4916562 C52.56075,52.59375 53.0289375,52.7185312 53.4878437,52.8835313 L53.5404375,52.903125 C56.2371562,53.8879688 58.389375,55.8617812 59.6031562,58.4615625 Z M37.719,34.2973125 C37.195125,35.3069063 36.8022187,36.3897188 36.5701875,37.5354375 C36.0174375,40.2620625 36.399,43.0268438 37.6230938,45.4760625 C37.8489375,45.9267188 38.0923125,46.369125 38.374875,46.7950313 C38.5666875,47.0848125 38.7842812,47.3498438 38.99775,47.6200313 C40.5405,49.5752813 42.6122812,50.9880938 44.9470312,51.723375 C46.1329687,52.0966875 47.3766562,52.3153125 48.6585,52.3153125 L48.6595312,52.3153125 C48.9812812,52.3153125 49.2999375,52.300875 49.6185937,52.276125 L39.9929062,58.6523438 L37.879875,60.0507188 L34.155,62.5185 L27.361125,52.259625 L26.2979062,50.6539688 L22.2512812,44.5438125 L37.719,34.2973125 Z M63.1424062,17.4590625 L75.046125,35.43375 L59.5804687,45.6771563 C60.1033125,44.669625 60.4951875,43.5868125 60.7272187,42.4431563 C61.3830938,39.2174062 60.7416562,35.92875 58.9225312,33.1835625 C56.6341875,29.7257812 52.7907187,27.66225 48.6389062,27.66225 C48.316125,27.66225 47.9954062,27.6766875 47.6757188,27.7014375 L63.1424062,17.4590625 Z M39.9485625,46.319625 C39.85575,46.19175 39.7515937,46.0741875 39.6629062,45.9411562 C38.07375,43.5404063 37.51275,40.66425 38.086125,37.84275 C38.6595,35.02125 40.297125,32.5926562 42.6968438,31.0035 C44.4695625,29.8289063 46.5238125,29.209125 48.6399375,29.209125 C52.2709688,29.209125 55.6328438,31.0138125 57.6345,34.0374375 C59.2246875,36.4381875 59.7856875,39.3133125 59.2123125,42.1348125 C58.6389375,44.9563125 57.0013125,47.3849063 54.6005625,48.9750938 C53.56725,49.6588125 52.432875,50.1300938 51.2520938,50.4250313 C50.66325,50.5725 50.0630625,50.6642813 49.4525625,50.7096563 C49.1875313,50.7302813 48.9255938,50.7684375 48.6574688,50.7684375 C48.6389063,50.7684375 48.6224063,50.7653438 48.6038438,50.7653438 C48.2191875,50.7632813 47.8386563,50.7364688 47.46225,50.6941875 C45.7431563,50.5044375 44.121,49.9032187 42.7071563,48.967875 C41.6480625,48.266625 40.7158125,47.3735625 39.9485625,46.319625 Z M22.84425,64.6872187 L26.701125,54.0674062 L33.7167187,64.6604062 L37.5570937,62.1173437 C37.31475,65.4225 38.4212812,68.66475 40.5508125,71.1180937 L22.84425,64.6872187 Z M69.4742812,81.621375 L51.7821562,75.1966875 C56.1422812,74.4944062 59.882625,71.4707812 61.4222812,67.2302812 C62.5463438,64.1365312 62.398875,60.790125 61.0056562,57.8067188 C60.5116875,56.7496875 59.8764375,55.7885625 59.1329062,54.9315938 L76.83225,61.359375 L69.4742812,81.621375 Z" id="Shape"></path>
                <path d="M51.1118437,41.7893438 C51.1314375,42.3090938 50.9633437,42.5132813 50.8354687,42.6225938 C50.3260312,43.0546875 49.1834063,42.9391875 48.8214375,42.8639063 L48.5007187,44.37675 C48.5976562,44.3984063 49.0400625,44.484 49.6051875,44.484 C49.9135312,44.484 50.2579687,44.4499688 50.6024062,44.3746875 L51.4861875,45.709125 L52.77525,44.85525 L51.9801562,43.6538438 C52.338,43.2908438 52.6937812,42.6989062 52.655625,41.7305625 C52.564875,39.2895938 49.611375,39.2390625 48.609,39.2215312 C46.4908125,39.17925 46.2,38.647125 46.1814375,38.18925 C46.1618437,37.6684687 46.3309687,37.4642812 46.459875,37.3549688 C46.9682812,36.9239063 48.114,37.0373437 48.4739062,37.112625 L48.7925625,35.59875 C48.642,35.5667812 47.6427187,35.3821875 46.65375,35.6131875 L45.7761562,34.287 L44.4870937,35.140875 L45.2873438,36.3515625 C44.9387813,36.716625 44.6005313,37.3034063 44.636625,38.2480313 C44.6985,39.8691563 46.0246875,40.717875 48.6141563,40.7684063 C50.3394375,40.7993438 51.0860625,41.1025313 51.1118437,41.7893438 Z" id="Shape"></path>
            </g>
        </g>
    </g>
</svg>