<?xml version="1.0" encoding="UTF-8"?>
<svg width="99px" height="99px" viewBox="0 0 99 99" version="1.1" xmlns="http://www.w3.org/2000/svg" xmlns:xlink="http://www.w3.org/1999/xlink">
    <!-- Generator: Sketch 51.2 (57519) - http://www.bohemiancoding.com/sketch -->
    <title>turnkey</title>
    <desc>Created with Sketch.</desc>
    <defs></defs>
    <g id="Symbols" stroke="none" stroke-width="1" fill="none" fill-rule="evenodd">
        <g id="Features" transform="translate(-232.000000, -268.000000)" fill="#02A2E0" fill-rule="nonzero">
            <g id="turnkey" transform="translate(232.000000, 268.000000)">
                <g id="Group">
                    <g transform="translate(21.710526, 20.842105)" id="Shape">
                        <path d="M46.1131579,33.9552632 L46.1131579,25.4447368 L42.3789474,25.4447368 C42.0315789,24.2289474 41.5973684,23.1 40.9894737,21.9710526 L43.5947368,19.3657895 L37.6026316,13.3736842 L34.9973684,16.0657895 C33.8684211,15.4578947 32.7394737,14.9368421 31.5236842,14.6763158 L31.5236842,10.9421053 L23.0131579,10.9421053 L23.0131579,14.6763158 C21.7973684,15.0236842 20.6684211,15.4578947 19.5394737,16.0657895 L16.9342105,13.4605263 L10.9421053,19.4526316 L13.5473684,22.0578947 C12.9394737,23.1868421 12.4184211,24.3157895 12.1578947,25.5315789 L8.42368421,25.5315789 L8.42368421,34.0421053 L12.1578947,34.0421053 C12.5052632,35.2578947 12.9394737,36.3868421 13.5473684,37.5157895 L10.9421053,40.1210526 L16.9342105,46.1131579 L19.5394737,43.5078947 C20.6684211,44.1157895 21.7973684,44.6368421 23.0131579,44.8973684 L23.0131579,48.6315789 L31.5236842,48.6315789 L31.5236842,44.8973684 C32.7394737,44.55 33.8684211,44.1157895 34.9973684,43.5078947 L37.6026316,46.1131579 L43.5947368,40.1210526 L40.9894737,37.5157895 C41.5973684,36.3868421 42.1184211,35.2578947 42.3789474,34.0421053 L46.1131579,34.0421053 L46.1131579,33.9552632 Z M27.2684211,40.2078947 C21.5368421,40.2078947 16.8473684,35.5184211 16.8473684,29.7868421 C16.8473684,24.0552632 21.5368421,19.3657895 27.2684211,19.3657895 C33,19.3657895 37.6894737,24.0552632 37.6894737,29.7868421 C37.6894737,35.5184211 33,40.2078947 27.2684211,40.2078947 Z"></path>
                        <path d="M2.34473684,38.5578947 C1.82368421,38.5578947 1.38947368,38.2105263 1.30263158,37.7763158 C0.521052632,35.1710526 0.0868421053,32.4789474 0.0868421053,29.7868421 C0.0868421053,16.4131579 9.63947368,5.21052632 22.7526316,3.03947368 C23.3605263,2.95263158 23.9684211,3.38684211 24.0552632,3.99473684 C24.1421053,4.60263158 23.7078947,5.21052632 23.1,5.29736842 C11.0289474,7.29473684 2.25789474,17.6289474 2.25789474,29.8736842 C2.25789474,32.3921053 2.60526316,34.8236842 3.38684211,37.1684211 C3.56052632,37.7763158 3.21315789,38.3842105 2.60526316,38.5578947 C2.60526316,38.4710526 2.51842105,38.5578947 2.34473684,38.5578947 Z"></path>
                        <path d="M27.2684211,56.8815789 C19.2789474,56.8815789 11.6368421,53.3210526 6.51315789,47.2421053 C6.07894737,46.8078947 6.16578947,46.0263158 6.68684211,45.6789474 C7.12105263,45.2447368 7.90263158,45.3315789 8.25,45.8526316 C13.0263158,51.4973684 19.9736842,54.7105263 27.2684211,54.7105263 C34.4763158,54.7105263 41.4236842,51.5842105 46.1131579,46.1131579 C46.5473684,45.6789474 47.2421053,45.5921053 47.6763158,46.0263158 C48.1105263,46.4605263 48.1973684,47.1552632 47.7631579,47.5894737 C42.6394737,53.4078947 35.1710526,56.8815789 27.2684211,56.8815789 Z"></path>
                        <path d="M51.5842105,40.2078947 C51.4105263,40.2078947 51.3236842,40.2078947 51.15,40.1210526 C50.5421053,39.8605263 50.2815789,39.2526316 50.5421053,38.6447368 C51.6710526,35.7789474 52.1921053,32.8263158 52.1921053,29.7 C52.1921053,17.5421053 43.5078947,7.20789474 31.5236842,5.12368421 C30.9157895,5.03684211 30.4815789,4.42894737 30.5684211,3.82105263 C30.6552632,3.21315789 31.2631579,2.77894737 31.8710526,2.86578947 C44.8973684,5.21052632 54.3631579,16.5 54.3631579,29.7 C54.3631579,33.0868421 53.7552632,36.3 52.5394737,39.4263158 C52.4526316,39.8605263 52.0184211,40.2078947 51.5842105,40.2078947 Z"></path>
                        <path d="M23.1,7.72894737 C22.8394737,7.72894737 22.4921053,7.64210526 22.3184211,7.38157895 C21.8842105,6.94736842 21.8842105,6.25263158 22.3184211,5.81842105 L23.9684211,4.16842105 L22.2315789,2.43157895 C21.7973684,1.99736842 21.7973684,1.30263158 22.2315789,0.868421053 C22.6657895,0.434210526 23.3605263,0.434210526 23.7947368,0.868421053 L27.1815789,4.25526316 L23.9684211,7.46842105 C23.7078947,7.55526316 23.3605263,7.72894737 23.1,7.72894737 Z"></path>
                        <path d="M50.3684211,42.1184211 L48.6315789,37.8631579 C48.3710526,37.2552632 48.7184211,36.6473684 49.2394737,36.3868421 C49.8473684,36.1263158 50.4552632,36.4736842 50.7157895,36.9947368 L51.5842105,39.1657895 L53.9289474,38.2105263 C54.5368421,37.95 55.1447368,38.2973684 55.4052632,38.8184211 C55.6657895,39.4263158 55.3184211,40.0342105 54.7973684,40.2947368 L50.3684211,42.1184211 Z"></path>
                        <path d="M5.47105263,48.8921053 C5.38421053,48.8921053 5.29736842,48.8921053 5.21052632,48.8921053 C4.60263158,48.7184211 4.25526316,48.1973684 4.34210526,47.5894737 L5.29736842,42.9868421 L9.81315789,43.9421053 C10.4210526,44.1157895 10.7684211,44.6368421 10.6815789,45.2447368 C10.5947368,45.8526316 9.98684211,46.2 9.37894737,46.1131579 L7.12105263,45.5921053 L6.6,48.0236842 C6.42631579,48.5447368 5.99210526,48.8921053 5.47105263,48.8921053 Z"></path>
                    </g>
                    <path d="M49.5,99 C22.2315789,99 0,76.7684211 0,49.5 C0,22.2315789 22.2315789,0 49.5,0 C76.7684211,0 99,22.2315789 99,49.5 C99,76.7684211 76.7684211,99 49.5,99 Z M49.5,2.51842105 C23.6210526,2.51842105 2.51842105,23.6210526 2.51842105,49.5 C2.51842105,75.3789474 23.6210526,96.4815789 49.5,96.4815789 C75.3789474,96.4815789 96.4815789,75.3789474 96.4815789,49.5 C96.4815789,23.6210526 75.3789474,2.51842105 49.5,2.51842105 Z" id="Shape"></path>
                </g>
            </g>
        </g>
    </g>
</svg>